<svg width="76" height="76" fill="none" xmlns="http://www.w3.org/2000/svg"><path fill="#fff" d="M0 0h76v76H0z"/><path d="M7.103 28.844c-1.544 6.794 10.987 32.79 24.4 26.87 4.94-2.471 4.323-8.34 4.323-8.34-.618-4.941-4.282-4.703-5.25-10.191-.97-5.489 3.383-14.494-7.104-18.53-6.71-2.584-14.236 1.614-16.369 10.191Z" fill="url('#paint0_linear_1_1122')"/><path d="M68.897 42.422c1.544 6.795-10.987 32.791-24.4 26.87-4.94-2.471-4.323-8.34-4.323-8.34.618-4.94 4.282-4.703 5.25-10.191.97-5.488-3.383-14.494 7.104-18.53 6.71-2.584 14.236 1.614 16.369 10.191Z" fill="url('#paint1_linear_1_1122')"/><ellipse cx="25.526" cy="11.373" rx="4.134" ry="5.11" transform="rotate(3.81 25.526 11.373)" fill="url('#paint2_linear_1_1122')"/><ellipse cx="4.134" cy="5.11" rx="4.134" ry="5.11" transform="scale(-1 1) rotate(3.809 -321.51 -806.054)" fill="url('#paint3_linear_1_1122')"/><ellipse cx="16.398" cy="12.399" rx="3.033" ry="3.749" transform="rotate(-6.31 16.398 12.4)" fill="url('#paint4_linear_1_1122')"/><ellipse cx="3.033" cy="3.749" rx="3.033" ry="3.749" transform="scale(-1 1) rotate(-6.31 173.341 582.986)" fill="url('#paint5_linear_1_1122')"/><ellipse cx="9.977" cy="15.437" rx="2.263" ry="2.797" transform="rotate(-25.49 9.977 15.437)" fill="url('#paint6_linear_1_1122')"/><ellipse cx="2.263" cy="2.797" rx="2.263" ry="2.797" transform="scale(-1 1) rotate(-25.49 26.077 166.855)" fill="url('#paint7_linear_1_1122')"/><ellipse cx="5.228" cy="20.031" rx="1.954" ry="2.416" transform="rotate(-56.031 5.228 20.031)" fill="url('#paint8_linear_1_1122')"/><ellipse cx="1.954" cy="2.416" rx="1.954" ry="2.416" transform="scale(-1 1) rotate(-56.031 -5.094 86.357)" fill="url('#paint9_linear_1_1122')"/><ellipse cx="2.491" cy="26.079" rx="1.752" ry="2.166" transform="rotate(-77.61 2.491 26.079)" fill="url('#paint10_linear_1_1122')"/><ellipse cx="1.752" cy="2.166" rx="1.752" ry="2.166" transform="scale(-1 1) rotate(-77.61 -12.567 67.706)" fill="url('#paint11_linear_1_1122')"/><defs><linearGradient id="paint0_linear_1_1122" x1="12.443" y1="21.707" x2="44.527" y2="51.698" gradientUnits="userSpaceOnUse"><stop stop-color="#74E6CF"/><stop offset="1" stop-color="#C0E594"/></linearGradient><linearGradient id="paint1_linear_1_1122" x1="63.557" y1="35.285" x2="31.473" y2="65.276" gradientUnits="userSpaceOnUse"><stop stop-color="#74E6CF"/><stop offset="1" stop-color="#C0E594"/></linearGradient><linearGradient id="paint2_linear_1_1122" x1="22.958" y1="7.27" x2="31.451" y2="15.876" gradientUnits="userSpaceOnUse"><stop stop-color="#74E6CF"/><stop offset="1" stop-color="#C0E594"/></linearGradient><linearGradient id="paint3_linear_1_1122" x1="1.566" y1="1.006" x2="10.059" y2="9.613" gradientUnits="userSpaceOnUse"><stop stop-color="#74E6CF"/><stop offset="1" stop-color="#C0E594"/></linearGradient><linearGradient id="paint4_linear_1_1122" x1="14.514" y1="9.389" x2="20.746" y2="15.704" gradientUnits="userSpaceOnUse"><stop stop-color="#74E6CF"/><stop offset="1" stop-color="#C0E594"/></linearGradient><linearGradient id="paint5_linear_1_1122" x1="1.149" y1=".738" x2="7.381" y2="7.053" gradientUnits="userSpaceOnUse"><stop stop-color="#74E6CF"/><stop offset="1" stop-color="#C0E594"/></linearGradient><linearGradient id="paint6_linear_1_1122" x1="8.571" y1="13.191" x2="13.22" y2="17.902" gradientUnits="userSpaceOnUse"><stop stop-color="#74E6CF"/><stop offset="1" stop-color="#C0E594"/></linearGradient><linearGradient id="paint7_linear_1_1122" x1=".857" y1=".551" x2="5.506" y2="5.262" gradientUnits="userSpaceOnUse"><stop stop-color="#74E6CF"/><stop offset="1" stop-color="#C0E594"/></linearGradient><linearGradient id="paint8_linear_1_1122" x1="4.014" y1="18.092" x2="8.029" y2="22.16" gradientUnits="userSpaceOnUse"><stop stop-color="#74E6CF"/><stop offset="1" stop-color="#C0E594"/></linearGradient><linearGradient id="paint9_linear_1_1122" x1=".74" y1=".476" x2="4.756" y2="4.544" gradientUnits="userSpaceOnUse"><stop stop-color="#74E6CF"/><stop offset="1" stop-color="#C0E594"/></linearGradient><linearGradient id="paint10_linear_1_1122" x1="1.403" y1="24.339" x2="5.003" y2="27.987" gradientUnits="userSpaceOnUse"><stop stop-color="#74E6CF"/><stop offset="1" stop-color="#C0E594"/></linearGradient><linearGradient id="paint11_linear_1_1122" x1=".664" y1=".427" x2="4.264" y2="4.075" gradientUnits="userSpaceOnUse"><stop stop-color="#74E6CF"/><stop offset="1" stop-color="#C0E594"/></linearGradient></defs></svg>