<svg width="112" height="30" fill="none" xmlns="http://www.w3.org/2000/svg"><rect width="112" height="30" rx="15" fill="#F0F8F6"/><rect x="86" y="4" width="22" height="22" rx="11" fill="url('#paint0_linear_1_1162')"/><path d="M14.02 15.713h-1.652V19h-1.483v-8.531h3c.985 0 1.744.22 2.28.662.535.441.802 1.08.802 1.916 0 .57-.139 1.049-.416 1.435-.273.383-.656.678-1.148.885l1.916 3.557V19H15.73l-1.711-3.287Zm-1.652-1.19h1.523c.5 0 .89-.125 1.172-.375.281-.253.422-.6.422-1.037 0-.457-.131-.81-.393-1.06-.258-.25-.644-.38-1.16-.387h-1.564v2.86Zm11.592.668h-3.504v2.625h4.096V19h-5.579v-8.531h5.538v1.195h-4.055v2.356h3.504v1.171Zm7.174 1.823h-3.305L27.138 19h-1.541l3.223-8.531h1.33L33.378 19h-1.547l-.697-1.986Zm-2.889-1.196h2.473l-1.236-3.539-1.237 3.54ZM34.951 19v-8.531h2.52c.753 0 1.421.168 2.003.504a3.43 3.43 0 0 1 1.36 1.43c.32.617.48 1.324.48 2.12v.428c0 .809-.162 1.52-.486 2.133a3.372 3.372 0 0 1-1.377 1.418c-.594.332-1.276.498-2.045.498H34.95Zm1.482-7.336v6.152h.967c.777 0 1.373-.242 1.787-.726.418-.488.631-1.188.639-2.098v-.474c0-.926-.201-1.633-.604-2.122-.402-.488-.986-.732-1.752-.732h-1.037Zm12.468-1.195 2.46 6.539 2.456-6.54h1.916V19h-1.477v-2.813l.147-3.761L51.883 19h-1.06l-2.514-6.568.147 3.755V19h-1.477v-8.531H48.9Zm15.998 4.488c0 .836-.144 1.57-.433 2.203-.29.63-.703 1.113-1.243 1.453-.535.336-1.152.504-1.851.504-.691 0-1.309-.168-1.852-.504-.539-.34-.957-.822-1.254-1.447-.293-.625-.441-1.346-.445-2.162v-.48c0-.833.147-1.567.44-2.204.296-.636.712-1.123 1.248-1.459.539-.34 1.156-.51 1.851-.51.696 0 1.31.168 1.846.504.539.332.955.813 1.248 1.442.293.625.441 1.353.445 2.185v.475Zm-1.482-.445c0-.946-.18-1.67-.54-2.174-.355-.504-.86-.756-1.517-.756-.64 0-1.142.252-1.506.756-.36.5-.543 1.209-.55 2.127v.492c0 .938.181 1.662.544 2.174.368.512.875.767 1.524.767.656 0 1.16-.25 1.512-.75.355-.5.533-1.23.533-2.191v-.445Zm6.694 1.2h-1.653V19h-1.482v-8.531h3c.984 0 1.744.22 2.28.662.534.441.802 1.08.802 1.916 0 .57-.139 1.049-.416 1.435-.274.383-.656.678-1.149.885l1.916 3.557V19h-1.588l-1.71-3.287Zm-1.653-1.189h1.524c.5 0 .89-.125 1.171-.375.282-.253.422-.6.422-1.037 0-.457-.13-.81-.392-1.06-.258-.25-.645-.38-1.16-.387h-1.565v2.86Zm11.592.668h-3.504v2.625h4.096V19h-5.578v-8.531h5.537v1.195h-4.055v2.356h3.504v1.171Z" fill="#01A3A4"/><rect x="96" y="11" width="2" height="8" rx="1" fill="#fff"/><rect x="101" y="14" width="2" height="8" rx="1" transform="rotate(90 101 14)" fill="#fff"/><defs><linearGradient id="paint0_linear_1_1162" x1="100.5" y1="18.5" x2="84" y2="10" gradientUnits="userSpaceOnUse"><stop stop-color="#74E6CF"/><stop offset="1" stop-color="#C0E594"/></linearGradient></defs></svg>