<svg width="190" height="27" fill="none" xmlns="http://www.w3.org/2000/svg"><path d="M4.012 5.154c0-1.335.572-2.444 1.716-3.328C6.888.942 8.318.5 10.018.5c1.317 0 2.34.269 3.068.806.745.537 1.118 1.309 1.118 2.314 0 .78-.2 1.413-.598 1.898-.382.485-.893.728-1.534.728a1.74 1.74 0 0 1-.676-.13 1.453 1.453 0 0 1-.52-.416c.346-.208.624-.52.832-.936.225-.416.338-.85.338-1.3 0-.555-.165-.98-.494-1.274-.33-.312-.806-.468-1.43-.468-.746 0-1.335.208-1.768.624-.416.416-.624.997-.624 1.742 0 .607.156 1.187.468 1.742.312.537.988 1.265 2.028 2.184 1.369 1.196 2.27 2.236 2.704 3.12.433.867.65 1.837.65 2.912 0 1.976-.685 3.553-2.054 4.732-1.37 1.179-3.12 1.768-5.252 1.768-1.7 0-3.042-.39-4.03-1.17-.988-.78-1.482-1.88-1.482-3.302 0-1.248.372-2.27 1.118-3.068.745-.797 1.646-1.196 2.704-1.196.658 0 1.196.156 1.612.468.416.295.64.71.676 1.248-.902 0-1.638.217-2.21.65-.555.433-.832 1.031-.832 1.794 0 .728.225 1.326.676 1.794.45.468 1.057.702 1.82.702.9 0 1.629-.312 2.184-.936.554-.624.832-1.465.832-2.522 0-.815-.182-1.595-.546-2.34-.364-.745-1.118-1.742-2.262-2.99-1.04-1.11-1.725-1.976-2.054-2.6-.312-.641-.468-1.283-.468-1.924Zm23.616 12.064c0-.312.034-.702.104-1.17.086-.468.251-1.213.494-2.236.242-.988.398-1.699.468-2.132.069-.433.104-.797.104-1.092 0-.433-.078-.763-.234-.988-.156-.225-.39-.338-.702-.338-.416 0-.806.217-1.17.65-.347.416-.633.997-.858 1.742L24.066 20h-3.744l1.898-8.97a.98.98 0 0 0 .052-.312c.017-.104.026-.217.026-.338 0-.347-.07-.624-.208-.832a.652.652 0 0 0-.572-.312c-.451 0-.858.217-1.222.65-.364.416-.659 1.005-.884 1.768L17.644 20H13.9l2.756-13H20.4l-.286 1.352c.433-.503.91-.875 1.43-1.118a4.07 4.07 0 0 1 1.742-.364c.762 0 1.36.19 1.794.572.45.364.745.919.884 1.664.485-.745 1.022-1.3 1.612-1.664.589-.364 1.256-.546 2.002-.546.918 0 1.629.251 2.132.754.502.503.754 1.23.754 2.184 0 .399-.052.875-.156 1.43-.087.537-.269 1.37-.546 2.496a36.445 36.445 0 0 0-.442 1.872c-.07.364-.104.667-.104.91 0 .364.086.641.26.832.173.173.433.26.78.26.433 0 .806-.147 1.118-.442.312-.295.667-.91 1.066-1.846h1.092c-.555 1.612-1.231 2.817-2.028 3.614-.78.797-1.716 1.196-2.808 1.196-.971 0-1.725-.26-2.262-.78-.538-.537-.806-1.257-.806-2.158Zm15.311-9.022v.182L43.225 7h3.744l-1.872 8.84a4.75 4.75 0 0 0-.078.442 2.75 2.75 0 0 0-.026.39c0 .381.087.667.26.858.174.173.442.26.806.26.45 0 .858-.208 1.222-.624.364-.433.659-1.04.884-1.82h1.092c-.554 1.595-1.274 2.8-2.158 3.614-.884.797-1.906 1.196-3.068 1.196-.745 0-1.343-.208-1.794-.624-.433-.416-.684-1.005-.754-1.768-.537.797-1.135 1.395-1.794 1.794a3.868 3.868 0 0 1-2.08.598c-1.074 0-1.924-.364-2.548-1.092-.606-.728-.91-1.76-.91-3.094 0-.97.148-1.985.442-3.042.295-1.057.702-2.02 1.222-2.886.642-1.023 1.387-1.803 2.236-2.34a4.986 4.986 0 0 1 2.782-.832c.676 0 1.196.121 1.56.364.364.225.546.546.546.962Zm-.234 1.274a.925.925 0 0 0-.286-.676c-.19-.208-.45-.312-.78-.312-.953 0-1.802.797-2.548 2.392C38.363 12.469 38 14.046 38 15.606c0 .676.096 1.187.286 1.534.19.33.529.494 1.014.494.45 0 .884-.217 1.3-.65.434-.433.72-.98.858-1.638l1.248-5.876Zm5.262 7.566c0-.225.017-.477.052-.754.035-.295.087-.607.156-.936L50.957 2.32l3.848-.52-2.99 14.04a4.75 4.75 0 0 0-.078.442 2.766 2.766 0 0 0-.026.39c0 .347.078.598.234.754.173.139.45.208.832.208.485 0 .944-.208 1.378-.624.433-.433.754-.988.962-1.664h1.092c-.555 1.577-1.3 2.773-2.236 3.588-.936.815-2.01 1.222-3.224 1.222-.867 0-1.552-.269-2.054-.806-.486-.555-.728-1.326-.728-2.314Zm6.931 0c0-.225.018-.477.052-.754.035-.295.087-.607.156-.936L57.888 2.32l3.848-.52-2.99 14.04c-.034.156-.06.303-.078.442a2.766 2.766 0 0 0-.026.39c0 .347.078.598.234.754.174.139.451.208.832.208.486 0 .945-.208 1.378-.624.434-.433.754-.988.962-1.664h1.092c-.554 1.577-1.3 2.773-2.236 3.588-.936.815-2.01 1.222-3.224 1.222-.866 0-1.55-.269-2.054-.806-.485-.555-.728-1.326-.728-2.314Zm20.94-1.378c0 .208-.008.39-.025.546a3.336 3.336 0 0 1-.078.442 20.19 20.19 0 0 0 1.014-.65c.33-.225.615-.442.858-.65h1.092a14.228 14.228 0 0 1-1.794 1.742c-.642.52-1.37 1.023-2.184 1.508-.468.503-1.066.893-1.794 1.17-.728.26-1.49.39-2.288.39-1.161 0-2.089-.312-2.782-.936-.676-.641-1.014-1.439-1.014-2.392 0-.537.13-1.023.39-1.456.26-.45.59-.771.988-.962a33.989 33.989 0 0 0 1.638-3.38c.52-1.213 1.04-2.652 1.56-4.316l3.848-.52c.052 1.3.112 2.487.182 3.562.07 1.075.156 2.245.26 3.51.052.728.087 1.24.104 1.534.017.295.026.58.026.858Zm-4.263-6.136a25.87 25.87 0 0 1-.832 2.236 31.742 31.742 0 0 1-1.274 2.678c.19.087.338.208.442.364a.961.961 0 0 1 .156.546c0 .33-.113.624-.338.884-.225.26-.494.39-.806.39a1.12 1.12 0 0 1-.442-.078.625.625 0 0 1-.26-.26c0 .641.121 1.11.364 1.404.26.277.667.416 1.222.416.71 0 1.265-.208 1.664-.624.398-.416.598-1.014.598-1.794 0-.243-.009-.485-.026-.728-.018-.26-.052-.685-.104-1.274a96.023 96.023 0 0 1-.208-2.158c-.052-.624-.104-1.291-.156-2.002ZM78.513 7h.858l.78-3.588 3.848-.52L83.115 7h1.56l-.209 1.04h-1.56l-1.663 7.8c-.035.156-.061.303-.078.442a2.766 2.766 0 0 0-.027.39c0 .347.078.598.234.754.174.139.451.208.832.208.486 0 .945-.208 1.379-.624.433-.433.754-.988.962-1.664h1.091c-.554 1.577-1.3 2.773-2.236 3.588-.936.815-2.01 1.222-3.224 1.222-.866 0-1.55-.269-2.053-.806-.486-.555-.729-1.326-.729-2.314 0-.225.018-.477.052-.754.035-.295.087-.607.157-.936l1.56-7.306h-.858L78.511 7Zm15.436 2.262c0 1.439-.59 2.695-1.768 3.77-1.178 1.057-2.582 1.63-4.212 1.716-.017.295-.034.52-.052.676v.364c0 .797.13 1.36.39 1.69.278.33.772.494 1.482.494a4.64 4.64 0 0 0 2.236-.546c.694-.381 1.482-1.075 2.366-2.08h.884c-1.005 1.63-2.097 2.843-3.276 3.64a6.876 6.876 0 0 1-3.874 1.17c-1.334 0-2.348-.347-3.042-1.04-.676-.693-1.014-1.725-1.014-3.094 0-.988.156-2.037.468-3.146.312-1.11.728-2.097 1.248-2.964.642-1.04 1.404-1.82 2.288-2.34.902-.537 1.907-.806 3.016-.806.954 0 1.664.208 2.132.624.486.399.728 1.023.728 1.872Zm-2.652-1.118c-.59 0-1.187.529-1.794 1.586-.59 1.04-1.031 2.297-1.326 3.77 1.006-.07 1.88-.529 2.626-1.378.763-.867 1.144-1.837 1.144-2.912 0-.364-.052-.633-.156-.806-.104-.173-.268-.26-.494-.26Zm6.417 9.152c.07.19.19.338.364.442.173.104.381.156.624.156 1.092 0 1.967-.702 2.626-2.106.676-1.404 1.014-3.033 1.014-4.888 0-.71-.104-1.248-.312-1.612-.208-.364-.538-.546-.988-.546-.312 0-.633.121-.962.364-.33.225-.607.529-.832.91l-1.534 7.28Zm-1.768 8.268-3.926.936 4.342-20.462h3.744l-.416 1.95a4.843 4.843 0 0 1 1.404-.832 4.576 4.576 0 0 1 1.638-.286c1.04 0 1.828.347 2.366 1.04.537.693.806 1.716.806 3.068 0 2.652-.572 4.845-1.716 6.578-1.127 1.733-2.687 2.6-4.68 2.6-.555 0-1.023-.078-1.404-.234a1.613 1.613 0 0 1-.806-.702l-1.352 6.344Zm18.766-9.906c0 .208-.009.39-.026.546a3.241 3.241 0 0 1-.078.442c.347-.208.685-.425 1.014-.65.329-.225.615-.442.858-.65h1.092a14.187 14.187 0 0 1-1.794 1.742 18.429 18.429 0 0 1-2.184 1.508c-.468.503-1.066.893-1.794 1.17-.728.26-1.491.39-2.288.39-1.161 0-2.089-.312-2.782-.936-.676-.641-1.014-1.439-1.014-2.392 0-.537.13-1.023.39-1.456.26-.45.589-.771.988-.962a34.121 34.121 0 0 0 1.638-3.38c.52-1.213 1.04-2.652 1.56-4.316l3.848-.52c.052 1.3.113 2.487.182 3.562.069 1.075.156 2.245.26 3.51.052.728.087 1.24.104 1.534.017.295.026.58.026.858Zm-4.264-6.136a25.87 25.87 0 0 1-.832 2.236 31.836 31.836 0 0 1-1.274 2.678c.191.087.338.208.442.364a.961.961 0 0 1 .156.546c0 .33-.113.624-.338.884-.225.26-.494.39-.806.39a1.12 1.12 0 0 1-.442-.078.627.627 0 0 1-.26-.26c0 .641.121 1.11.364 1.404.26.277.667.416 1.222.416.711 0 1.265-.208 1.664-.624.399-.416.598-1.014.598-1.794 0-.243-.009-.485-.026-.728-.017-.26-.052-.685-.104-1.274a94.29 94.29 0 0 1-.208-2.158c-.052-.624-.104-1.291-.156-2.002Zm24.404 7.696c0-.312.035-.702.104-1.17.087-.468.252-1.213.494-2.236.243-.988.399-1.699.468-2.132.07-.433.104-.797.104-1.092 0-.433-.078-.763-.234-.988-.156-.225-.39-.338-.702-.338-.416 0-.806.217-1.17.65-.346.416-.632.997-.858 1.742L131.29 20h-3.744l1.898-8.97a.972.972 0 0 0 .052-.312c.018-.104.026-.217.026-.338 0-.347-.069-.624-.208-.832a.651.651 0 0 0-.572-.312c-.45 0-.858.217-1.222.65-.364.416-.658 1.005-.884 1.768L124.868 20h-3.744l2.756-13h3.744l-.286 1.352c.434-.503.91-.875 1.43-1.118a4.07 4.07 0 0 1 1.742-.364c.763 0 1.361.19 1.794.572.451.364.746.919.884 1.664.486-.745 1.023-1.3 1.612-1.664.59-.364 1.257-.546 2.002-.546.919 0 1.63.251 2.132.754.503.503.754 1.23.754 2.184 0 .399-.052.875-.156 1.43-.086.537-.268 1.37-.546 2.496a37.578 37.578 0 0 0-.442 1.872 5.059 5.059 0 0 0-.104.91c0 .364.087.641.26.832.174.173.434.26.78.26a1.57 1.57 0 0 0 1.118-.442c.312-.295.668-.91 1.066-1.846h1.092c-.554 1.612-1.23 2.817-2.028 3.614-.78.797-1.716 1.196-2.808 1.196-.97 0-1.724-.26-2.262-.78-.537-.537-.806-1.257-.806-2.158Zm15.312-9.022v.182L150.45 7h3.744l-1.872 8.84a4.56 4.56 0 0 0-.078.442 2.811 2.811 0 0 0-.026.39c0 .381.087.667.26.858.173.173.442.26.806.26.451 0 .858-.208 1.222-.624.364-.433.659-1.04.884-1.82h1.092c-.555 1.595-1.274 2.8-2.158 3.614-.884.797-1.907 1.196-3.068 1.196-.745 0-1.343-.208-1.794-.624-.433-.416-.685-1.005-.754-1.768-.537.797-1.135 1.395-1.794 1.794a3.868 3.868 0 0 1-2.08.598c-1.075 0-1.924-.364-2.548-1.092-.607-.728-.91-1.76-.91-3.094 0-.97.147-1.985.442-3.042.295-1.057.702-2.02 1.222-2.886.641-1.023 1.387-1.803 2.236-2.34a4.987 4.987 0 0 1 2.782-.832c.676 0 1.196.121 1.56.364.364.225.546.546.546.962Zm-.234 1.274a.923.923 0 0 0-.286-.676c-.191-.208-.451-.312-.78-.312-.953 0-1.803.797-2.548 2.392-.728 1.595-1.092 3.172-1.092 4.732 0 .676.095 1.187.286 1.534.191.33.529.494 1.014.494.451 0 .884-.217 1.3-.65.433-.433.719-.98.858-1.638l1.248-5.876ZM156.335 7h.858l.78-3.588 3.848-.52L160.937 7h1.56l-.208 1.04h-1.56l-1.664 7.8a4.56 4.56 0 0 0-.078.442 2.665 2.665 0 0 0-.026.39c0 .347.078.598.234.754.173.139.45.208.832.208.485 0 .944-.208 1.378-.624.433-.433.754-.988.962-1.664h1.092c-.555 1.577-1.3 2.773-2.236 3.588-.936.815-2.011 1.222-3.224 1.222-.867 0-1.552-.269-2.054-.806-.486-.555-.728-1.326-.728-2.314 0-.225.017-.477.052-.754.034-.295.086-.607.156-.936l1.56-7.306h-.858l.208-1.04Zm6.931 0h.858l.78-3.588 3.848-.52L167.868 7h1.56l-.208 1.04h-1.56l-1.664 7.8c-.034.156-.06.303-.078.442a2.811 2.811 0 0 0-.026.39c0 .347.078.598.234.754.174.139.451.208.832.208.486 0 .945-.208 1.378-.624.434-.433.754-.988.962-1.664h1.092c-.554 1.577-1.3 2.773-2.236 3.588-.936.815-2.01 1.222-3.224 1.222-.866 0-1.551-.269-2.054-.806-.485-.555-.728-1.326-.728-2.314 0-.225.018-.477.052-.754.035-.295.087-.607.156-.936l1.56-7.306h-.858l.208-1.04Zm15.437 2.262c0 1.439-.589 2.695-1.768 3.77-1.179 1.057-2.583 1.63-4.212 1.716-.017.295-.035.52-.052.676v.364c0 .797.13 1.36.39 1.69.277.33.771.494 1.482.494a4.64 4.64 0 0 0 2.236-.546c.693-.381 1.482-1.075 2.366-2.08h.884c-1.005 1.63-2.097 2.843-3.276 3.64a6.877 6.877 0 0 1-3.874 1.17c-1.335 0-2.349-.347-3.042-1.04-.676-.693-1.014-1.725-1.014-3.094 0-.988.156-2.037.468-3.146.312-1.11.728-2.097 1.248-2.964.641-1.04 1.404-1.82 2.288-2.34.901-.537 1.907-.806 3.016-.806.953 0 1.664.208 2.132.624.485.399.728 1.023.728 1.872Zm-2.652-1.118c-.589 0-1.187.529-1.794 1.586-.589 1.04-1.031 2.297-1.326 3.77 1.005-.07 1.881-.529 2.626-1.378.763-.867 1.144-1.837 1.144-2.912 0-.364-.052-.633-.156-.806-.104-.173-.269-.26-.494-.26ZM181.921 20h-3.744l2.756-13h3.744l-.338 1.612c.763-.641 1.361-1.066 1.794-1.274A3 3 0 0 1 187.485 7c.537 0 .971.19 1.3.572.329.364.494.823.494 1.378 0 .537-.173.988-.52 1.352-.347.364-.797.546-1.352.546-.295 0-.529-.07-.702-.208-.156-.139-.269-.425-.338-.858-.052-.277-.113-.45-.182-.52a.346.346 0 0 0-.286-.13c-.295 0-.572.06-.832.182-.26.121-.615.39-1.066.806l-2.08 9.88Z" fill="url('#paint0_linear_1_1120')"/><defs><linearGradient id="paint0_linear_1_1120" x1="35.795" y1="-2.864" x2="47.807" y2="64.827" gradientUnits="userSpaceOnUse"><stop stop-color="#74E6CF"/><stop offset="1" stop-color="#C0E594"/></linearGradient></defs></svg>