<svg width="30" height="30" viewBox="0 0 30 30" fill="none" xmlns="http://www.w3.org/2000/svg">
<g clip-path="url(#clip0_1_1269)">
<path d="M25.6068 4.39359C22.7736 1.56035 19.0067 0 15 0C10.9936 0 7.22684 1.56035 4.39359 4.39359C1.56035 7.22684 0 10.9936 0 15C0 19.0071 1.56035 22.7741 4.39359 25.6071C7.22666 28.4399 10.9934 30 15 30C19.0069 30 22.7738 28.4399 25.6067 25.6071C28.4398 22.7742 30 19.0072 30 15C30 10.9935 28.4398 7.22672 25.6068 4.39359ZM24.9438 24.9442C22.2879 27.5999 18.7565 29.0625 15 29.0625C11.2438 29.0625 7.71246 27.5999 5.05646 24.9442C2.40029 22.2882 0.9375 18.7566 0.9375 15C0.9375 11.244 2.40029 7.7127 5.05646 5.05646C7.7127 2.40029 11.244 0.9375 15 0.9375C18.7563 0.9375 22.2878 2.40029 24.9438 5.05646C27.5998 7.71258 29.0625 11.2439 29.0625 15C29.0625 18.7567 27.5998 22.2883 24.9438 24.9442Z" fill="#01A3A4"/>
<path d="M23.3587 11.412C23.4744 11.2386 23.4617 11.0096 23.3275 10.8501C23.1933 10.6906 22.9699 10.6389 22.7792 10.7231C22.7673 10.7284 22.7553 10.7337 22.7434 10.7388C22.8536 10.5411 22.9447 10.3317 23.0146 10.1133C23.0741 9.92776 23.0126 9.72491 22.8602 9.60362C22.7079 9.48228 22.4964 9.46786 22.329 9.56718C21.856 9.84796 21.35 10.0543 20.8216 10.1823C20.1889 9.60936 19.3566 9.2854 18.4986 9.2854C16.596 9.2854 15.0482 10.8324 15.0482 12.7339C15.0482 12.7883 15.0494 12.8426 15.0519 12.8966C13.0093 12.6476 11.124 11.6126 9.81259 10.003C9.71544 9.88376 9.56614 9.81972 9.41263 9.83179C9.25929 9.8438 9.12159 9.93022 9.04419 10.0631C8.73868 10.5875 8.5772 11.1872 8.5772 11.7976C8.5772 12.3807 8.72286 12.9426 8.9904 13.4387C8.91862 13.4434 8.84773 13.4647 8.78368 13.5025C8.64054 13.5867 8.55271 13.7403 8.55271 13.9065V13.9437C8.55271 14.9764 9.01606 15.924 9.76067 16.564C9.74456 16.5779 9.72927 16.593 9.71497 16.6092C9.60605 16.733 9.57007 16.9048 9.62034 17.0618C9.94067 18.0627 10.6897 18.8392 11.628 19.2131C10.8662 19.5961 10.0252 19.7951 9.1486 19.7951C8.92759 19.7951 8.70657 19.7824 8.49171 19.7574C8.27503 19.7321 8.06948 19.8598 7.99612 20.0653C7.92271 20.2708 8.00081 20.4997 8.18444 20.6176C9.62644 21.5425 11.2942 22.0313 13.0076 22.0313C16.374 22.0313 18.4817 20.4419 19.6569 19.1086C21.1199 17.4489 21.959 15.2516 21.959 13.0799C21.959 13.0264 21.9585 12.9742 21.9577 12.9231C22.5027 12.497 22.9733 11.9897 23.3587 11.412ZM21.2069 12.3147C21.0781 12.4076 21.0051 12.5594 21.0129 12.718C21.0186 12.8334 21.0214 12.9518 21.0214 13.0799C21.0214 15.0265 20.2677 16.9979 18.9536 18.4887C17.9061 19.6771 16.0242 21.0938 13.0076 21.0938C12.0847 21.0938 11.1765 20.9353 10.3184 20.6287C11.3443 20.4435 12.3042 20.0131 13.1398 19.3575C13.2958 19.2351 13.358 19.0278 13.295 18.8398C13.232 18.6518 13.0576 18.5238 12.8593 18.52C12.0341 18.5045 11.2872 18.0885 10.8362 17.434C11.0715 17.4197 11.3053 17.3815 11.5341 17.3197C11.744 17.263 11.8873 17.0693 11.8804 16.852C11.8734 16.6347 11.7178 16.4507 11.5047 16.4076C10.5709 16.219 9.842 15.518 9.58776 14.635C9.83849 14.7012 10.0968 14.7395 10.3565 14.7482C10.566 14.7553 10.7543 14.6224 10.8183 14.4231C10.8825 14.2237 10.8065 14.006 10.6323 13.8898C9.93259 13.4228 9.51487 12.6407 9.51487 11.7975C9.51487 11.5839 9.54194 11.3722 9.59474 11.1676C11.1655 12.7896 13.3042 13.7684 15.5709 13.8814C15.719 13.8887 15.8598 13.8265 15.9542 13.7136C16.0484 13.6007 16.0842 13.45 16.0508 13.3066C16.0077 13.1221 15.9859 12.9294 15.9859 12.7339C15.9859 11.3493 17.1131 10.2228 18.4988 10.2228C19.1904 10.2228 19.8591 10.5118 20.3336 11.0154C20.444 11.1326 20.6068 11.185 20.7647 11.1541C20.9423 11.1194 21.1179 11.0773 21.2912 11.0278C21.2043 11.0969 21.1124 11.1606 21.0161 11.2182C20.8265 11.3318 20.7419 11.5623 20.8132 11.7715C20.8844 11.9807 21.0919 12.1118 21.3116 12.0859C21.3879 12.077 21.464 12.0667 21.5399 12.055C21.4324 12.1455 21.3214 12.2321 21.2069 12.3147Z" fill="#01A3A4"/>
</g>
<defs>
<clipPath id="clip0_1_1269">
<rect width="30" height="30" fill="white"/>
</clipPath>
</defs>
</svg>
