<svg width="30" height="30" viewBox="0 0 30 30" fill="none" xmlns="http://www.w3.org/2000/svg">
<g clip-path="url(#clip0_1_1273)">
<path d="M25.6068 4.39359C22.7736 1.56035 19.0067 0 15 0C10.9936 0 7.22684 1.56035 4.39359 4.39359C1.56035 7.22684 0 10.9936 0 15C0 19.0071 1.56035 22.7741 4.39359 25.6071C7.22666 28.4399 10.9934 30 15 30C19.0069 30 22.7738 28.4399 25.6067 25.6071C28.4398 22.7742 30 19.0072 30 15C30 10.9935 28.4398 7.22672 25.6068 4.39359ZM24.9438 24.9442C22.2879 27.5999 18.7565 29.0625 15 29.0625C11.2438 29.0625 7.71246 27.5999 5.05646 24.9442C2.40029 22.2882 0.9375 18.7566 0.9375 15C0.9375 11.244 2.40029 7.7127 5.05646 5.05646C7.7127 2.40029 11.244 0.9375 15 0.9375C18.7563 0.9375 22.2878 2.40029 24.9438 5.05646C27.5998 7.71258 29.0625 11.2439 29.0625 15C29.0625 18.7567 27.5998 22.2883 24.9438 24.9442Z" fill="#01A3A4"/>
<path d="M23.075 11.6724C23.0576 11.5413 22.8895 10.3762 22.3437 9.78313C21.6917 9.0575 20.9498 8.98238 20.5931 8.94623C20.562 8.94307 20.5334 8.9402 20.5077 8.93709C20.5006 8.93621 20.4937 8.93551 20.4866 8.93498C18.3331 8.76805 15.0822 8.76611 15.0496 8.76611H15.0423C15.0097 8.76611 11.7588 8.76805 9.60576 8.93498C9.59873 8.93551 9.5917 8.93621 9.58473 8.93709C9.55906 8.94025 9.53047 8.94313 9.4993 8.94623C9.14269 8.98232 8.40113 9.05738 7.74875 9.78307C7.20336 10.3759 7.03484 11.5411 7.01744 11.6722C7.01709 11.6748 7.0168 11.6775 7.01645 11.68C7.01 11.7355 6.85889 13.0548 6.85889 14.3987V15.6476C6.85889 16.9925 7.01 18.3113 7.01645 18.3668C7.01674 18.3693 7.01709 18.3719 7.01738 18.3744C7.03479 18.5055 7.20289 19.6704 7.74898 20.2626C8.35273 20.9336 9.11721 21.0318 9.52818 21.0847C9.60055 21.094 9.66307 21.102 9.70566 21.1105C9.72019 21.1134 9.73484 21.1156 9.74961 21.1171C10.9918 21.2444 14.8769 21.2835 15.047 21.2851C15.0796 21.2851 18.3332 21.2774 20.4862 21.1125C20.4941 21.1119 20.502 21.1111 20.5099 21.11C20.5364 21.1066 20.566 21.1036 20.5982 21.1002C20.9541 21.063 21.6942 20.9857 22.3436 20.2628C22.8891 19.6708 23.0575 18.5062 23.0749 18.3751C23.0753 18.3726 23.0756 18.3699 23.0759 18.3673C23.0824 18.3118 23.2334 16.9926 23.2335 15.6482V14.3993C23.2335 13.0548 23.0824 11.7356 23.0759 11.6801C23.0756 11.6775 23.0753 11.675 23.075 11.6724ZM22.2959 15.6482C22.2959 16.902 22.1541 18.1757 22.1451 18.2555C22.1098 18.516 21.9463 19.3122 21.653 19.6287C21.6513 19.6306 21.6495 19.6326 21.6478 19.6345C21.239 20.0907 20.7947 20.1371 20.5007 20.1679C20.4655 20.1716 20.433 20.175 20.4034 20.1787C18.2854 20.34 15.0775 20.3476 15.0507 20.3478C15.011 20.3473 11.0875 20.3079 9.86486 20.1866C9.79725 20.1742 9.72435 20.1648 9.64766 20.1549C9.29656 20.1098 8.81568 20.048 8.44426 19.6338C8.4425 19.6319 8.44074 19.63 8.43898 19.628C8.17836 19.347 7.99936 18.6381 7.94715 18.2548C7.93789 18.1731 7.79627 16.901 7.79627 15.6477V14.3988C7.79627 13.1449 7.93818 11.8708 7.94715 11.7918C7.98242 11.5311 8.14602 10.7343 8.43939 10.4169C8.44098 10.4152 8.44262 10.4134 8.4442 10.4117C8.85482 9.95381 9.29943 9.90881 9.59363 9.87899C9.62762 9.87553 9.65914 9.8723 9.68797 9.86891C11.8048 9.70555 15.01 9.70361 15.0422 9.70361H15.0495C15.0816 9.70361 18.2869 9.70555 20.4042 9.86891C20.4329 9.8723 20.4645 9.87553 20.4985 9.87899C20.7928 9.90875 21.2376 9.95381 21.6478 10.4115C21.6495 10.4134 21.6512 10.4152 21.6528 10.4171C21.9136 10.6988 22.0926 11.4079 22.145 11.792C22.1543 11.8736 22.2959 13.1463 22.2959 14.3992L22.2959 15.6482Z" fill="#01A3A4"/>
<path d="M18.1847 14.6238L13.3591 11.7284C13.2143 11.6416 13.034 11.6393 12.887 11.7224C12.74 11.8056 12.6492 11.9614 12.6492 12.1303V17.921C12.6492 18.0899 12.74 18.2458 12.887 18.3289C12.9587 18.3695 13.0383 18.3898 13.1179 18.3898C13.2015 18.3898 13.285 18.3675 13.3591 18.323L18.1846 15.4276C18.3258 15.3429 18.4122 15.1903 18.4122 15.0256C18.4122 14.861 18.3259 14.7085 18.1847 14.6238ZM13.5867 17.0932V12.9583L17.0325 15.0257L13.5867 17.0932Z" fill="#01A3A4"/>
</g>
<defs>
<clipPath id="clip0_1_1273">
<rect width="30" height="30" fill="white"/>
</clipPath>
</defs>
</svg>
