<svg width="30" height="30" viewBox="0 0 30 30" fill="none" xmlns="http://www.w3.org/2000/svg">
<rect width="30" height="30" rx="15" fill="#F0F8F6"/>
<rect width="22" height="22" rx="11" transform="matrix(-1 0 0 1 26 4.00146)" fill="url(#paint0_linear_1_1214)"/>
<g clip-path="url(#clip0_1_1214)">
<path d="M13.5632 11.0236L14.5813 12.0692C14.6509 12.1405 14.6508 12.2543 14.5809 12.3255L12.8557 14.0849L20.3167 14.0849C20.4179 14.0849 20.5 14.167 20.5 14.2682L20.5 15.7349C20.5 15.8361 20.4179 15.9182 20.3167 15.9182L12.8557 15.9182L14.5809 17.6777C14.6506 17.7488 14.6507 17.8625 14.5813 17.9338L13.5632 18.9794C13.5287 19.0149 13.4814 19.0349 13.4319 19.0349C13.3824 19.0349 13.3351 19.0147 13.3007 18.9794L9.55206 15.1294C9.5174 15.0938 9.5 15.0476 9.5 15.0016C9.5 14.9554 9.51742 14.9094 9.55206 14.8736L13.3007 11.0236C13.3351 10.9882 13.3824 10.9682 13.4319 10.9682C13.4814 10.9682 13.5287 10.9882 13.5632 11.0236Z" fill="white"/>
</g>
<defs>
<linearGradient id="paint0_linear_1_1214" x1="14.5" y1="14.5" x2="-2" y2="6" gradientUnits="userSpaceOnUse">
<stop stop-color="#74E6CF"/>
<stop offset="1" stop-color="#C0E594"/>
</linearGradient>
<clipPath id="clip0_1_1214">
<rect width="11" height="11" fill="white" transform="matrix(4.37114e-08 -1 -1 -4.37114e-08 20.5 20.5015)"/>
</clipPath>
</defs>
</svg>
