<svg width="30" height="30" viewBox="0 0 30 30" fill="none" xmlns="http://www.w3.org/2000/svg">
<rect width="30" height="30" rx="15" transform="matrix(-1 0 0 1 30 0)" fill="#F0F8F6"/>
<rect x="4" y="4.00146" width="22" height="22" rx="11" fill="url(#paint0_linear_1_1221)"/>
<g clip-path="url(#clip0_1_1221)">
<path d="M16.4368 11.0236L15.4187 12.0692C15.3491 12.1405 15.3492 12.2543 15.4191 12.3255L17.1443 14.0849L9.68333 14.0849C9.58213 14.0849 9.5 14.167 9.5 14.2682L9.5 15.7349C9.5 15.8361 9.58213 15.9182 9.68333 15.9182L17.1443 15.9182L15.4191 17.6777C15.3494 17.7488 15.3493 17.8625 15.4187 17.9338L16.4368 18.9794C16.4713 19.0149 16.5186 19.0349 16.5681 19.0349C16.6176 19.0349 16.6649 19.0147 16.6993 18.9794L20.4479 15.1294C20.4826 15.0938 20.5 15.0476 20.5 15.0016C20.5 14.9554 20.4826 14.9094 20.4479 14.8736L16.6993 11.0236C16.6649 10.9882 16.6176 10.9682 16.5681 10.9682C16.5186 10.9682 16.4713 10.9882 16.4368 11.0236Z" fill="white"/>
</g>
<defs>
<linearGradient id="paint0_linear_1_1221" x1="18.5" y1="18.5015" x2="2" y2="10.0015" gradientUnits="userSpaceOnUse">
<stop stop-color="#74E6CF"/>
<stop offset="1" stop-color="#C0E594"/>
</linearGradient>
<clipPath id="clip0_1_1221">
<rect width="11" height="11" fill="white" transform="translate(9.5 20.5015) rotate(-90)"/>
</clipPath>
</defs>
</svg>
