<svg width="190" height="27" viewBox="0 0 190 27" fill="none" xmlns="http://www.w3.org/2000/svg">
<path d="M4.01157 5.154C4.01157 3.81933 4.58357 2.71 5.72757 1.826C6.8889 0.941998 8.3189 0.499998 10.0176 0.499998C11.3349 0.499998 12.3576 0.768665 13.0856 1.306C13.8309 1.84333 14.2036 2.61467 14.2036 3.62C14.2036 4.4 14.0042 5.03267 13.6056 5.518C13.2242 6.00333 12.7129 6.246 12.0716 6.246C11.8289 6.246 11.6036 6.20267 11.3956 6.116C11.2049 6.02933 11.0316 5.89067 10.8756 5.7C11.2222 5.492 11.4996 5.18 11.7076 4.764C11.9329 4.348 12.0456 3.91467 12.0456 3.464C12.0456 2.90933 11.8809 2.48467 11.5516 2.19C11.2222 1.878 10.7456 1.722 10.1216 1.722C9.37624 1.722 8.7869 1.93 8.35357 2.346C7.93757 2.762 7.72957 3.34267 7.72957 4.088C7.72957 4.69467 7.88557 5.27533 8.19757 5.83C8.50957 6.36733 9.18557 7.09533 10.2256 8.014C11.5949 9.21 12.4962 10.25 12.9296 11.134C13.3629 12.0007 13.5796 12.9713 13.5796 14.046C13.5796 16.022 12.8949 17.5993 11.5256 18.778C10.1562 19.9567 8.40557 20.546 6.27357 20.546C4.5749 20.546 3.23157 20.156 2.24357 19.376C1.25557 18.596 0.76157 17.4953 0.76157 16.074C0.76157 14.826 1.13424 13.8033 1.87957 13.006C2.6249 12.2087 3.52624 11.81 4.58357 11.81C5.24224 11.81 5.77957 11.966 6.19557 12.278C6.61157 12.5727 6.8369 12.9887 6.87157 13.526C5.97024 13.526 5.23357 13.7427 4.66157 14.176C4.1069 14.6093 3.82957 15.2073 3.82957 15.97C3.82957 16.698 4.0549 17.296 4.50557 17.764C4.95624 18.232 5.5629 18.466 6.32557 18.466C7.2269 18.466 7.9549 18.154 8.50957 17.53C9.06424 16.906 9.34157 16.0653 9.34157 15.008C9.34157 14.1933 9.15957 13.4133 8.79557 12.668C8.43157 11.9227 7.67757 10.926 6.53357 9.678C5.49357 8.56867 4.8089 7.702 4.47957 7.078C4.16757 6.43667 4.01157 5.79533 4.01157 5.154ZM27.6277 17.218C27.6277 16.906 27.6624 16.516 27.7317 16.048C27.8184 15.58 27.983 14.8347 28.2257 13.812C28.4684 12.824 28.6244 12.1133 28.6937 11.68C28.763 11.2467 28.7977 10.8827 28.7977 10.588C28.7977 10.1547 28.7197 9.82533 28.5637 9.6C28.4077 9.37467 28.1737 9.262 27.8617 9.262C27.4457 9.262 27.0557 9.47867 26.6917 9.912C26.345 10.328 26.059 10.9087 25.8337 11.654L24.0657 20H20.3217L22.2197 11.03C22.2544 10.926 22.2717 10.822 22.2717 10.718C22.289 10.614 22.2977 10.5013 22.2977 10.38C22.2977 10.0333 22.2284 9.756 22.0897 9.548C21.951 9.34 21.7604 9.236 21.5177 9.236C21.067 9.236 20.6597 9.45267 20.2957 9.886C19.9317 10.302 19.637 10.8913 19.4117 11.654L17.6437 20H13.8997L16.6557 7H20.3997L20.1137 8.352C20.547 7.84933 21.0237 7.47667 21.5437 7.234C22.0637 6.99133 22.6444 6.87 23.2857 6.87C24.0484 6.87 24.6464 7.06067 25.0797 7.442C25.5304 7.806 25.825 8.36067 25.9637 9.106C26.449 8.36067 26.9864 7.806 27.5757 7.442C28.165 7.078 28.8324 6.896 29.5777 6.896C30.4964 6.896 31.207 7.14733 31.7097 7.65C32.2124 8.15267 32.4637 8.88067 32.4637 9.834C32.4637 10.2327 32.4117 10.7093 32.3077 11.264C32.221 11.8013 32.039 12.6333 31.7617 13.76C31.5364 14.644 31.389 15.268 31.3197 15.632C31.2504 15.996 31.2157 16.2993 31.2157 16.542C31.2157 16.906 31.3024 17.1833 31.4757 17.374C31.649 17.5473 31.909 17.634 32.2557 17.634C32.689 17.634 33.0617 17.4867 33.3737 17.192C33.6857 16.8973 34.041 16.282 34.4397 15.346H35.5317C34.977 16.958 34.301 18.1627 33.5037 18.96C32.7237 19.7573 31.7877 20.156 30.6957 20.156C29.725 20.156 28.971 19.896 28.4337 19.376C27.8964 18.8387 27.6277 18.1193 27.6277 17.218ZM42.9393 8.196V8.378L43.2253 7H46.9693L45.0973 15.84C45.0626 15.996 45.0366 16.1433 45.0193 16.282C45.0019 16.4033 44.9933 16.5333 44.9933 16.672C44.9933 17.0533 45.0799 17.3393 45.2533 17.53C45.4266 17.7033 45.6953 17.79 46.0593 17.79C46.5099 17.79 46.9173 17.582 47.2813 17.166C47.6453 16.7327 47.9399 16.126 48.1653 15.346H49.2573C48.7026 16.9407 47.9833 18.1453 47.0993 18.96C46.2153 19.7573 45.1926 20.156 44.0313 20.156C43.2859 20.156 42.6879 19.948 42.2373 19.532C41.8039 19.116 41.5526 18.5267 41.4833 17.764C40.9459 18.5613 40.3479 19.1593 39.6893 19.558C39.0479 19.9567 38.3546 20.156 37.6093 20.156C36.5346 20.156 35.6853 19.792 35.0613 19.064C34.4546 18.336 34.1513 17.3047 34.1513 15.97C34.1513 14.9993 34.2986 13.9853 34.5933 12.928C34.8879 11.8707 35.2953 10.9087 35.8153 10.042C36.4566 9.01933 37.2019 8.23933 38.0513 7.702C38.9006 7.14733 39.8279 6.87 40.8333 6.87C41.5093 6.87 42.0293 6.99133 42.3933 7.234C42.7573 7.45933 42.9393 7.78 42.9393 8.196ZM42.7053 9.47C42.7053 9.21 42.6099 8.98467 42.4193 8.794C42.2286 8.586 41.9686 8.482 41.6393 8.482C40.6859 8.482 39.8366 9.27933 39.0913 10.874C38.3633 12.4687 37.9993 14.046 37.9993 15.606C37.9993 16.282 38.0946 16.7933 38.2853 17.14C38.4759 17.4693 38.8139 17.634 39.2993 17.634C39.7499 17.634 40.1833 17.4173 40.5993 16.984C41.0326 16.5507 41.3186 16.0047 41.4573 15.346L42.7053 9.47ZM47.9668 17.036C47.9668 16.8107 47.9841 16.5593 48.0188 16.282C48.0535 15.9873 48.1055 15.6753 48.1748 15.346L50.9568 2.32L54.8048 1.8L51.8148 15.84C51.7801 15.996 51.7541 16.1433 51.7368 16.282C51.7195 16.4033 51.7108 16.5333 51.7108 16.672C51.7108 17.0187 51.7888 17.27 51.9448 17.426C52.1181 17.5647 52.3955 17.634 52.7768 17.634C53.2621 17.634 53.7215 17.426 54.1548 17.01C54.5881 16.5767 54.9088 16.022 55.1168 15.346H56.2088C55.6541 16.9233 54.9088 18.1193 53.9728 18.934C53.0368 19.7487 51.9621 20.156 50.7488 20.156C49.8821 20.156 49.1975 19.8873 48.6948 19.35C48.2095 18.7953 47.9668 18.024 47.9668 17.036ZM54.8984 17.036C54.8984 16.8107 54.9158 16.5593 54.9504 16.282C54.9851 15.9873 55.0371 15.6753 55.1064 15.346L57.8884 2.32L61.7364 1.8L58.7464 15.84C58.7118 15.996 58.6858 16.1433 58.6684 16.282C58.6511 16.4033 58.6424 16.5333 58.6424 16.672C58.6424 17.0187 58.7204 17.27 58.8764 17.426C59.0498 17.5647 59.3271 17.634 59.7084 17.634C60.1938 17.634 60.6531 17.426 61.0864 17.01C61.5198 16.5767 61.8404 16.022 62.0484 15.346H63.1404C62.5858 16.9233 61.8404 18.1193 60.9044 18.934C59.9684 19.7487 58.8938 20.156 57.6804 20.156C56.8138 20.156 56.1291 19.8873 55.6264 19.35C55.1411 18.7953 54.8984 18.024 54.8984 17.036ZM75.8388 15.658C75.8388 15.866 75.8301 16.048 75.8128 16.204C75.7955 16.36 75.7695 16.5073 75.7348 16.646C76.0815 16.438 76.4195 16.2213 76.7488 15.996C77.0781 15.7707 77.3641 15.554 77.6068 15.346H78.6988C78.1615 15.97 77.5635 16.5507 76.9048 17.088C76.2635 17.608 75.5355 18.1107 74.7208 18.596C74.2528 19.0987 73.6548 19.4887 72.9268 19.766C72.1988 20.026 71.4361 20.156 70.6388 20.156C69.4775 20.156 68.5501 19.844 67.8568 19.22C67.1808 18.5787 66.8428 17.7813 66.8428 16.828C66.8428 16.2907 66.9728 15.8053 67.2328 15.372C67.4928 14.9213 67.8221 14.6007 68.2208 14.41C68.8101 13.3527 69.3561 12.226 69.8588 11.03C70.3788 9.81667 70.8988 8.378 71.4188 6.714L75.2668 6.194C75.3188 7.494 75.3795 8.68133 75.4488 9.756C75.5181 10.8307 75.6048 12.0007 75.7088 13.266C75.7608 13.994 75.7955 14.5053 75.8128 14.8C75.8301 15.0947 75.8388 15.3807 75.8388 15.658ZM71.5748 9.522C71.3495 10.2327 71.0721 10.978 70.7428 11.758C70.4308 12.5207 70.0061 13.4133 69.4688 14.436C69.6595 14.5227 69.8068 14.644 69.9108 14.8C70.0148 14.956 70.0668 15.138 70.0668 15.346C70.0668 15.6753 69.9541 15.97 69.7288 16.23C69.5035 16.49 69.2348 16.62 68.9228 16.62C68.7495 16.62 68.6021 16.594 68.4808 16.542C68.3595 16.4727 68.2728 16.386 68.2208 16.282C68.2208 16.9233 68.3421 17.3913 68.5848 17.686C68.8448 17.9633 69.2521 18.102 69.8068 18.102C70.5175 18.102 71.0721 17.894 71.4708 17.478C71.8695 17.062 72.0688 16.464 72.0688 15.684C72.0688 15.4413 72.0601 15.1987 72.0428 14.956C72.0255 14.696 71.9908 14.2713 71.9388 13.682C71.8521 12.8673 71.7828 12.148 71.7308 11.524C71.6788 10.9 71.6268 10.2327 71.5748 9.522ZM78.5125 7H79.3705L80.1505 3.412L83.9985 2.892L83.1145 7H84.6745L84.4665 8.04H82.9065L81.2425 15.84C81.2079 15.996 81.1819 16.1433 81.1645 16.282C81.1472 16.4033 81.1385 16.5333 81.1385 16.672C81.1385 17.0187 81.2165 17.27 81.3725 17.426C81.5459 17.5647 81.8232 17.634 82.2045 17.634C82.6899 17.634 83.1492 17.426 83.5825 17.01C84.0159 16.5767 84.3365 16.022 84.5445 15.346H85.6365C85.0819 16.9233 84.3365 18.1193 83.4005 18.934C82.4645 19.7487 81.3899 20.156 80.1765 20.156C79.3099 20.156 78.6252 19.8873 78.1225 19.35C77.6372 18.7953 77.3945 18.024 77.3945 17.036C77.3945 16.8107 77.4119 16.5593 77.4465 16.282C77.4812 15.9873 77.5332 15.6753 77.6025 15.346L79.1625 8.04H78.3045L78.5125 7ZM93.9492 9.262C93.9492 10.7007 93.3599 11.9573 92.1812 13.032C91.0026 14.0893 89.5986 14.6613 87.9692 14.748C87.9519 15.0427 87.9346 15.268 87.9172 15.424C87.9172 15.5627 87.9172 15.684 87.9172 15.788C87.9172 16.5853 88.0472 17.1487 88.3072 17.478C88.5846 17.8073 89.0786 17.972 89.7892 17.972C90.6039 17.972 91.3492 17.79 92.0252 17.426C92.7186 17.0447 93.5072 16.3513 94.3912 15.346H95.2752C94.2699 16.9753 93.1779 18.1887 91.9992 18.986C90.8206 19.766 89.5292 20.156 88.1252 20.156C86.7906 20.156 85.7766 19.8093 85.0832 19.116C84.4072 18.4227 84.0692 17.3913 84.0692 16.022C84.0692 15.034 84.2252 13.9853 84.5372 12.876C84.8492 11.7667 85.2652 10.7787 85.7852 9.912C86.4266 8.872 87.1892 8.092 88.0732 7.572C88.9746 7.03467 89.9799 6.766 91.0892 6.766C92.0426 6.766 92.7532 6.974 93.2212 7.39C93.7066 7.78867 93.9492 8.41267 93.9492 9.262ZM91.2972 8.144C90.7079 8.144 90.1099 8.67267 89.5032 9.73C88.9139 10.77 88.4719 12.0267 88.1772 13.5C89.1826 13.4307 90.0579 12.9713 90.8032 12.122C91.5659 11.2553 91.9472 10.2847 91.9472 9.21C91.9472 8.846 91.8952 8.57733 91.7912 8.404C91.6872 8.23067 91.5226 8.144 91.2972 8.144ZM97.7137 17.296C97.7831 17.4867 97.9044 17.634 98.0777 17.738C98.2511 17.842 98.4591 17.894 98.7017 17.894C99.7937 17.894 100.669 17.192 101.328 15.788C102.004 14.384 102.342 12.7547 102.342 10.9C102.342 10.1893 102.238 9.652 102.03 9.288C101.822 8.924 101.492 8.742 101.042 8.742C100.73 8.742 100.409 8.86333 100.08 9.106C99.7504 9.33133 99.4731 9.63467 99.2477 10.016L97.7137 17.296ZM95.9457 25.564L92.0197 26.5L96.3617 6.038H100.106L99.6897 7.988C100.123 7.624 100.591 7.34667 101.094 7.156C101.596 6.96533 102.142 6.87 102.732 6.87C103.772 6.87 104.56 7.21667 105.098 7.91C105.635 8.60333 105.904 9.626 105.904 10.978C105.904 13.63 105.332 15.8227 104.188 17.556C103.061 19.2893 101.501 20.156 99.5077 20.156C98.9531 20.156 98.4851 20.078 98.1037 19.922C97.7397 19.766 97.4711 19.532 97.2977 19.22L95.9457 25.564ZM114.712 15.658C114.712 15.866 114.703 16.048 114.686 16.204C114.669 16.36 114.643 16.5073 114.608 16.646C114.955 16.438 115.293 16.2213 115.622 15.996C115.951 15.7707 116.237 15.554 116.48 15.346H117.572C117.035 15.97 116.437 16.5507 115.778 17.088C115.137 17.608 114.409 18.1107 113.594 18.596C113.126 19.0987 112.528 19.4887 111.8 19.766C111.072 20.026 110.309 20.156 109.512 20.156C108.351 20.156 107.423 19.844 106.73 19.22C106.054 18.5787 105.716 17.7813 105.716 16.828C105.716 16.2907 105.846 15.8053 106.106 15.372C106.366 14.9213 106.695 14.6007 107.094 14.41C107.683 13.3527 108.229 12.226 108.732 11.03C109.252 9.81667 109.772 8.378 110.292 6.714L114.14 6.194C114.192 7.494 114.253 8.68133 114.322 9.756C114.391 10.8307 114.478 12.0007 114.582 13.266C114.634 13.994 114.669 14.5053 114.686 14.8C114.703 15.0947 114.712 15.3807 114.712 15.658ZM110.448 9.522C110.223 10.2327 109.945 10.978 109.616 11.758C109.304 12.5207 108.879 13.4133 108.342 14.436C108.533 14.5227 108.68 14.644 108.784 14.8C108.888 14.956 108.94 15.138 108.94 15.346C108.94 15.6753 108.827 15.97 108.602 16.23C108.377 16.49 108.108 16.62 107.796 16.62C107.623 16.62 107.475 16.594 107.354 16.542C107.233 16.4727 107.146 16.386 107.094 16.282C107.094 16.9233 107.215 17.3913 107.458 17.686C107.718 17.9633 108.125 18.102 108.68 18.102C109.391 18.102 109.945 17.894 110.344 17.478C110.743 17.062 110.942 16.464 110.942 15.684C110.942 15.4413 110.933 15.1987 110.916 14.956C110.899 14.696 110.864 14.2713 110.812 13.682C110.725 12.8673 110.656 12.148 110.604 11.524C110.552 10.9 110.5 10.2327 110.448 9.522ZM134.852 17.218C134.852 16.906 134.887 16.516 134.956 16.048C135.043 15.58 135.208 14.8347 135.45 13.812C135.693 12.824 135.849 12.1133 135.918 11.68C135.988 11.2467 136.022 10.8827 136.022 10.588C136.022 10.1547 135.944 9.82533 135.788 9.6C135.632 9.37467 135.398 9.262 135.086 9.262C134.67 9.262 134.28 9.47867 133.916 9.912C133.57 10.328 133.284 10.9087 133.058 11.654L131.29 20H127.546L129.444 11.03C129.479 10.926 129.496 10.822 129.496 10.718C129.514 10.614 129.522 10.5013 129.522 10.38C129.522 10.0333 129.453 9.756 129.314 9.548C129.176 9.34 128.985 9.236 128.742 9.236C128.292 9.236 127.884 9.45267 127.52 9.886C127.156 10.302 126.862 10.8913 126.636 11.654L124.868 20H121.124L123.88 7H127.624L127.338 8.352C127.772 7.84933 128.248 7.47667 128.768 7.234C129.288 6.99133 129.869 6.87 130.51 6.87C131.273 6.87 131.871 7.06067 132.304 7.442C132.755 7.806 133.05 8.36067 133.188 9.106C133.674 8.36067 134.211 7.806 134.8 7.442C135.39 7.078 136.057 6.896 136.802 6.896C137.721 6.896 138.432 7.14733 138.934 7.65C139.437 8.15267 139.688 8.88067 139.688 9.834C139.688 10.2327 139.636 10.7093 139.532 11.264C139.446 11.8013 139.264 12.6333 138.986 13.76C138.761 14.644 138.614 15.268 138.544 15.632C138.475 15.996 138.44 16.2993 138.44 16.542C138.44 16.906 138.527 17.1833 138.7 17.374C138.874 17.5473 139.134 17.634 139.48 17.634C139.914 17.634 140.286 17.4867 140.598 17.192C140.91 16.8973 141.266 16.282 141.664 15.346H142.756C142.202 16.958 141.526 18.1627 140.728 18.96C139.948 19.7573 139.012 20.156 137.92 20.156C136.95 20.156 136.196 19.896 135.658 19.376C135.121 18.8387 134.852 18.1193 134.852 17.218ZM150.164 8.196V8.378L150.45 7H154.194L152.322 15.84C152.287 15.996 152.261 16.1433 152.244 16.282C152.227 16.4033 152.218 16.5333 152.218 16.672C152.218 17.0533 152.305 17.3393 152.478 17.53C152.651 17.7033 152.92 17.79 153.284 17.79C153.735 17.79 154.142 17.582 154.506 17.166C154.87 16.7327 155.165 16.126 155.39 15.346H156.482C155.927 16.9407 155.208 18.1453 154.324 18.96C153.44 19.7573 152.417 20.156 151.256 20.156C150.511 20.156 149.913 19.948 149.462 19.532C149.029 19.116 148.777 18.5267 148.708 17.764C148.171 18.5613 147.573 19.1593 146.914 19.558C146.273 19.9567 145.579 20.156 144.834 20.156C143.759 20.156 142.91 19.792 142.286 19.064C141.679 18.336 141.376 17.3047 141.376 15.97C141.376 14.9993 141.523 13.9853 141.818 12.928C142.113 11.8707 142.52 10.9087 143.04 10.042C143.681 9.01933 144.427 8.23933 145.276 7.702C146.125 7.14733 147.053 6.87 148.058 6.87C148.734 6.87 149.254 6.99133 149.618 7.234C149.982 7.45933 150.164 7.78 150.164 8.196ZM149.93 9.47C149.93 9.21 149.835 8.98467 149.644 8.794C149.453 8.586 149.193 8.482 148.864 8.482C147.911 8.482 147.061 9.27933 146.316 10.874C145.588 12.4687 145.224 14.046 145.224 15.606C145.224 16.282 145.319 16.7933 145.51 17.14C145.701 17.4693 146.039 17.634 146.524 17.634C146.975 17.634 147.408 17.4173 147.824 16.984C148.257 16.5507 148.543 16.0047 148.682 15.346L149.93 9.47ZM156.335 7H157.193L157.973 3.412L161.821 2.892L160.937 7H162.497L162.289 8.04H160.729L159.065 15.84C159.03 15.996 159.004 16.1433 158.987 16.282C158.969 16.4033 158.961 16.5333 158.961 16.672C158.961 17.0187 159.039 17.27 159.195 17.426C159.368 17.5647 159.645 17.634 160.027 17.634C160.512 17.634 160.971 17.426 161.405 17.01C161.838 16.5767 162.159 16.022 162.367 15.346H163.459C162.904 16.9233 162.159 18.1193 161.223 18.934C160.287 19.7487 159.212 20.156 157.999 20.156C157.132 20.156 156.447 19.8873 155.945 19.35C155.459 18.7953 155.217 18.024 155.217 17.036C155.217 16.8107 155.234 16.5593 155.269 16.282C155.303 15.9873 155.355 15.6753 155.425 15.346L156.985 8.04H156.127L156.335 7ZM163.266 7H164.124L164.904 3.412L168.752 2.892L167.868 7H169.428L169.22 8.04H167.66L165.996 15.84C165.962 15.996 165.936 16.1433 165.918 16.282C165.901 16.4033 165.892 16.5333 165.892 16.672C165.892 17.0187 165.97 17.27 166.126 17.426C166.3 17.5647 166.577 17.634 166.958 17.634C167.444 17.634 167.903 17.426 168.336 17.01C168.77 16.5767 169.09 16.022 169.298 15.346H170.39C169.836 16.9233 169.09 18.1193 168.154 18.934C167.218 19.7487 166.144 20.156 164.93 20.156C164.064 20.156 163.379 19.8873 162.876 19.35C162.391 18.7953 162.148 18.024 162.148 17.036C162.148 16.8107 162.166 16.5593 162.2 16.282C162.235 15.9873 162.287 15.6753 162.356 15.346L163.916 8.04H163.058L163.266 7ZM178.703 9.262C178.703 10.7007 178.114 11.9573 176.935 13.032C175.756 14.0893 174.352 14.6613 172.723 14.748C172.706 15.0427 172.688 15.268 172.671 15.424C172.671 15.5627 172.671 15.684 172.671 15.788C172.671 16.5853 172.801 17.1487 173.061 17.478C173.338 17.8073 173.832 17.972 174.543 17.972C175.358 17.972 176.103 17.79 176.779 17.426C177.472 17.0447 178.261 16.3513 179.145 15.346H180.029C179.024 16.9753 177.932 18.1887 176.753 18.986C175.574 19.766 174.283 20.156 172.879 20.156C171.544 20.156 170.53 19.8093 169.837 19.116C169.161 18.4227 168.823 17.3913 168.823 16.022C168.823 15.034 168.979 13.9853 169.291 12.876C169.603 11.7667 170.019 10.7787 170.539 9.912C171.18 8.872 171.943 8.092 172.827 7.572C173.728 7.03467 174.734 6.766 175.843 6.766C176.796 6.766 177.507 6.974 177.975 7.39C178.46 7.78867 178.703 8.41267 178.703 9.262ZM176.051 8.144C175.462 8.144 174.864 8.67267 174.257 9.73C173.668 10.77 173.226 12.0267 172.931 13.5C173.936 13.4307 174.812 12.9713 175.557 12.122C176.32 11.2553 176.701 10.2847 176.701 9.21C176.701 8.846 176.649 8.57733 176.545 8.404C176.441 8.23067 176.276 8.144 176.051 8.144ZM181.921 20H178.177L180.933 7H184.677L184.339 8.612C185.102 7.97067 185.7 7.546 186.133 7.338C186.584 7.11267 187.034 7 187.485 7C188.022 7 188.456 7.19067 188.785 7.572C189.114 7.936 189.279 8.39533 189.279 8.95C189.279 9.48733 189.106 9.938 188.759 10.302C188.412 10.666 187.962 10.848 187.407 10.848C187.112 10.848 186.878 10.7787 186.705 10.64C186.549 10.5013 186.436 10.2153 186.367 9.782C186.315 9.50467 186.254 9.33133 186.185 9.262C186.116 9.17533 186.02 9.132 185.899 9.132C185.604 9.132 185.327 9.19267 185.067 9.314C184.807 9.43533 184.452 9.704 184.001 10.12L181.921 20Z" fill="url(#paint0_linear_1_1120)"/>
<defs>
<linearGradient id="paint0_linear_1_1120" x1="35.7955" y1="-2.86364" x2="47.8069" y2="64.8269" gradientUnits="userSpaceOnUse">
<stop stop-color="#74E6CF"/>
<stop offset="1" stop-color="#C0E594"/>
</linearGradient>
</defs>
</svg>
