<svg width="112" height="30" viewBox="0 0 112 30" fill="none" xmlns="http://www.w3.org/2000/svg">
<rect width="112" height="30" rx="15" fill="#F0F8F6"/>
<rect x="86" y="4" width="22" height="22" rx="11" fill="url(#paint0_linear_1_1162)"/>
<path d="M14.0199 15.7129H12.3676V19H10.8852V10.4688H13.8852C14.8695 10.4688 15.6293 10.6895 16.1645 11.1309C16.6996 11.5723 16.9672 12.2109 16.9672 13.0469C16.9672 13.6172 16.8285 14.0957 16.5512 14.4824C16.2777 14.8652 15.8949 15.1602 15.4027 15.3672L17.3187 18.9238V19H15.7309L14.0199 15.7129ZM12.3676 14.5234H13.891C14.391 14.5234 14.7816 14.3984 15.0629 14.1484C15.3441 13.8945 15.4848 13.5488 15.4848 13.1113C15.4848 12.6543 15.3539 12.3008 15.0922 12.0508C14.8344 11.8008 14.4477 11.6719 13.932 11.6641H12.3676V14.5234ZM23.9598 15.1914H20.4559V17.8164H24.5516V19H18.9734V10.4688H24.5105V11.6641H20.4559V14.0195H23.9598V15.1914ZM31.134 17.0137H27.8293L27.1379 19H25.5969L28.8195 10.4688H30.1496L33.3781 19H31.8312L31.134 17.0137ZM28.2453 15.8184H30.718L29.4816 12.2793L28.2453 15.8184ZM34.9508 19V10.4688H37.4703C38.2242 10.4688 38.8922 10.6367 39.4742 10.9727C40.0602 11.3086 40.5133 11.7852 40.8336 12.4023C41.1539 13.0195 41.3141 13.7266 41.3141 14.5234V14.9512C41.3141 15.7598 41.152 16.4707 40.8277 17.084C40.5074 17.6973 40.0484 18.1699 39.4508 18.502C38.857 18.834 38.1754 19 37.4059 19H34.9508ZM36.4332 11.6641V17.8164H37.4C38.1773 17.8164 38.773 17.5742 39.1871 17.0898C39.6051 16.6016 39.818 15.9023 39.8258 14.9922V14.5176C39.8258 13.5918 39.6246 12.8848 39.2223 12.3965C38.8199 11.9082 38.2359 11.6641 37.4703 11.6641H36.4332ZM48.9008 10.4688L51.3617 17.0078L53.8168 10.4688H55.7328V19H54.2562V16.1875L54.4027 12.4258L51.8832 19H50.8227L48.309 12.4316L48.4555 16.1875V19H46.9789V10.4688H48.9008ZM64.8992 14.957C64.8992 15.793 64.7547 16.5273 64.4656 17.1602C64.1766 17.7891 63.7625 18.2734 63.2234 18.6133C62.6883 18.9492 62.0711 19.1172 61.3719 19.1172C60.6805 19.1172 60.0633 18.9492 59.5203 18.6133C58.9812 18.2734 58.5633 17.791 58.2664 17.166C57.9734 16.541 57.825 15.8203 57.8211 15.0039V14.5234C57.8211 13.6914 57.9676 12.957 58.2605 12.3203C58.5574 11.6836 58.9734 11.1973 59.5086 10.8613C60.0477 10.5215 60.6648 10.3516 61.3602 10.3516C62.0555 10.3516 62.6707 10.5195 63.2059 10.8555C63.7449 11.1875 64.1609 11.668 64.4539 12.2969C64.7469 12.9219 64.8953 13.6504 64.8992 14.4824V14.957ZM63.4168 14.5117C63.4168 13.5664 63.2371 12.8418 62.8777 12.3379C62.5223 11.834 62.0164 11.582 61.3602 11.582C60.7195 11.582 60.2176 11.834 59.8543 12.3379C59.4949 12.8379 59.3113 13.5469 59.3035 14.4648V14.957C59.3035 15.8945 59.4852 16.6191 59.8484 17.1309C60.2156 17.6426 60.7234 17.8984 61.3719 17.8984C62.0281 17.8984 62.532 17.6484 62.8836 17.1484C63.2391 16.6484 63.4168 15.918 63.4168 14.957V14.5117ZM70.1105 15.7129H68.4582V19H66.9758V10.4688H69.9758C70.9602 10.4688 71.7199 10.6895 72.2551 11.1309C72.7902 11.5723 73.0578 12.2109 73.0578 13.0469C73.0578 13.6172 72.9191 14.0957 72.6418 14.4824C72.3684 14.8652 71.9855 15.1602 71.4934 15.3672L73.4094 18.9238V19H71.8215L70.1105 15.7129ZM68.4582 14.5234H69.9816C70.4816 14.5234 70.8723 14.3984 71.1535 14.1484C71.4348 13.8945 71.5754 13.5488 71.5754 13.1113C71.5754 12.6543 71.4445 12.3008 71.1828 12.0508C70.925 11.8008 70.5383 11.6719 70.0227 11.6641H68.4582V14.5234ZM80.0504 15.1914H76.5465V17.8164H80.6422V19H75.0641V10.4688H80.6012V11.6641H76.5465V14.0195H80.0504V15.1914Z" fill="#01A3A4"/>
<rect x="96" y="11" width="2" height="8" rx="1" fill="white"/>
<rect x="101" y="14" width="2" height="8" rx="1" transform="rotate(90 101 14)" fill="white"/>
<defs>
<linearGradient id="paint0_linear_1_1162" x1="100.5" y1="18.5" x2="84" y2="10" gradientUnits="userSpaceOnUse">
<stop stop-color="#74E6CF"/>
<stop offset="1" stop-color="#C0E594"/>
</linearGradient>
</defs>
</svg>
